<?xml version="1.0" encoding="utf-8" standalone="no"?>
<!DOCTYPE svg PUBLIC "-//W3C//DTD SVG 1.1//EN"
  "http://www.w3.org/Graphics/SVG/1.1/DTD/svg11.dtd">
<svg xmlns:xlink="http://www.w3.org/1999/xlink" width="576pt" height="576pt" viewBox="0 0 576 576" xmlns="http://www.w3.org/2000/svg" version="1.1">
 <metadata>
  <rdf:RDF xmlns:dc="http://purl.org/dc/elements/1.1/" xmlns:cc="http://creativecommons.org/ns#" xmlns:rdf="http://www.w3.org/1999/02/22-rdf-syntax-ns#">
   <cc:Work>
    <dc:type rdf:resource="http://purl.org/dc/dcmitype/StillImage"/>
    <dc:date>2025-08-06T06:45:40.552821</dc:date>
    <dc:format>image/svg+xml</dc:format>
    <dc:creator>
     <cc:Agent>
      <dc:title>Matplotlib v3.10.3, https://matplotlib.org/</dc:title>
     </cc:Agent>
    </dc:creator>
   </cc:Work>
  </rdf:RDF>
 </metadata>
 <defs>
  <style type="text/css">*{stroke-linejoin: round; stroke-linecap: butt}</style>
 </defs>
 <g id="figure_1">
  <g id="patch_1">
   <path d="M 0 576 
L 576 576 
L 576 0 
L 0 0 
z
" style="fill: #ffffff"/>
  </g>
  <g id="axes_1">
   <g id="patch_2">
    <path d="M 391.94 202.42 
C 391.94 188.770724 389.25139 175.254171 384.028039 162.643884 
C 378.804687 150.033598 371.148174 138.574817 361.496679 128.923321 
C 351.845183 119.271826 340.386402 111.615313 327.776116 106.391961 
C 315.165829 101.16861 301.649276 98.48 288 98.48 
C 274.350724 98.48 260.834171 101.16861 248.223884 106.391961 
C 235.613598 111.615313 224.154817 119.271826 214.503321 128.923321 
C 204.851826 138.574817 197.195313 150.033598 191.971961 162.643884 
C 186.74861 175.254171 184.06 188.770724 184.06 202.42 
C 184.06 216.069276 186.74861 229.585829 191.971961 242.196116 
C 197.195313 254.806402 204.851826 266.265183 214.503321 275.916679 
C 224.154817 285.568174 235.613598 293.224687 248.223884 298.448039 
C 260.834171 303.67139 274.350724 306.36 288 306.36 
C 301.649276 306.36 315.165829 303.67139 327.776116 298.448039 
C 340.386402 293.224687 351.845183 285.568174 361.496679 275.916679 
C 371.148174 266.265183 378.804687 254.806402 384.028039 242.196116 
C 389.25139 229.585829 391.94 216.069276 391.94 202.42 
M 288 202.42 
C 288 202.42 288 202.42 288 202.42 
C 288 202.42 288 202.42 288 202.42 
C 288 202.42 288 202.42 288 202.42 
C 288 202.42 288 202.42 288 202.42 
C 288 202.42 288 202.42 288 202.42 
C 288 202.42 288 202.42 288 202.42 
C 288 202.42 288 202.42 288 202.42 
C 288 202.42 288 202.42 288 202.42 
C 288 202.42 288 202.42 288 202.42 
C 288 202.42 288 202.42 288 202.42 
C 288 202.42 288 202.42 288 202.42 
C 288 202.42 288 202.42 288 202.42 
C 288 202.42 288 202.42 288 202.42 
C 288 202.42 288 202.42 288 202.42 
C 288 202.42 288 202.42 288 202.42 
C 288 202.42 288 202.42 288 202.42 
z
" style="fill: #ffffff"/>
   </g>
   <g id="patch_3">
    <path d="M 288 202.42 
L 287.481165 200.344403 
L 286.983821 198.26571 
L 286.508475 196.186182 
L 286.055591 194.108084 
L 285.625588 192.033685 
L 285.218839 189.965253 
L 284.835671 187.905054 
L 284.476366 185.855351 
L 284.141159 183.818397 
L 283.830239 181.796436 
L 283.543749 179.791698 
L 283.281783 177.806398 
L 283.044393 175.842732 
L 282.831581 173.902875 
L 282.643305 171.988981 
L 282.479477 170.103173 
L 282.339963 168.24755 
L 282.224584 166.424177 
L 282.133119 164.635087 
L 282.0653 162.882275 
L 282.020818 161.167699 
L 281.999321 159.493275 
L 282.000413 157.860878 
L 282.023662 156.272334 
L 282.068591 154.729426 
L 282.134687 153.233882 
L 282.221399 151.787383 
L 282.328137 150.391552 
L 282.454277 149.04796 
L 282.59916 147.758116 
L 282.762094 146.523474 
L 282.942353 145.345423 
L 283.139184 144.22529 
L 283.3518 143.164339 
L 283.579391 142.163766 
L 283.821116 141.2247 
L 284.076111 140.348201 
L 284.343491 139.535258 
L 284.622345 138.786791 
L 284.911744 138.103645 
L 285.210741 137.486591 
L 285.518371 136.936329 
L 285.833654 136.45348 
L 286.155598 136.038589 
L 286.483196 135.692128 
L 286.815436 135.414487 
L 287.151293 135.205981 
L 287.489739 135.066845 
L 287.82974 134.997238 
L 288.17026 134.997238 
L 288.510261 135.066845 
L 288.848707 135.205981 
L 289.184564 135.414487 
L 289.516804 135.692128 
L 289.844402 136.038589 
L 290.166346 136.45348 
L 290.481629 136.936329 
L 290.789259 137.486591 
L 291.088256 138.103645 
L 291.377655 138.786791 
L 291.656509 139.535258 
L 291.923889 140.348201 
L 292.178884 141.2247 
L 292.420609 142.163766 
L 292.6482 143.164339 
L 292.860816 144.22529 
L 293.057647 145.345423 
L 293.237906 146.523474 
L 293.40084 147.758116 
L 293.545723 149.04796 
L 293.671863 150.391552 
L 293.778601 151.787383 
L 293.865313 153.233882 
L 293.931409 154.729426 
L 293.976338 156.272334 
L 293.999587 157.860878 
L 294.000679 159.493275 
L 293.979182 161.167699 
L 293.9347 162.882275 
L 293.866881 164.635087 
L 293.775416 166.424177 
L 293.660037 168.24755 
L 293.520523 170.103173 
L 293.356695 171.988981 
L 293.168419 173.902875 
L 292.955607 175.842732 
L 292.718217 177.806398 
L 292.456251 179.791698 
L 292.169761 181.796436 
L 291.858841 183.818397 
L 291.523634 185.855351 
L 291.164329 187.905054 
L 290.781161 189.965253 
L 290.374412 192.033685 
L 289.944409 194.108084 
L 289.491525 196.186182 
L 289.016179 198.26571 
L 288.518835 200.344403 
L 288 202.42 
z
" clip-path="url(#p226133357e)" style="fill: #4682b4; opacity: 0.3"/>
   </g>
   <g id="patch_4">
    <path d="M 288 202.42 
L 290.132461 201.085701 
L 292.276191 199.774308 
L 294.428849 198.487211 
L 296.588069 197.225751 
L 298.751466 195.99122 
L 300.916639 194.78486 
L 303.081173 193.607861 
L 305.242641 192.461359 
L 307.398609 191.346436 
L 309.546635 190.264119 
L 311.684278 189.215376 
L 313.809096 188.201121 
L 315.918651 187.222206 
L 318.010512 186.279426 
L 320.082256 185.373515 
L 322.131476 184.505147 
L 324.155777 183.674934 
L 326.152785 182.883428 
L 328.120145 182.131118 
L 330.055531 181.418431 
L 331.956639 180.745732 
L 333.821198 180.113323 
L 335.646971 179.521444 
L 337.431755 178.970274 
L 339.173388 178.459928 
L 340.869746 177.99046 
L 342.518752 177.561865 
L 344.118376 177.174073 
L 345.666636 176.826956 
L 347.161603 176.520327 
L 348.601401 176.253938 
L 349.984213 176.027485 
L 351.30828 175.840606 
L 352.571904 175.692881 
L 353.773454 175.583837 
L 354.91136 175.512946 
L 355.984125 175.479628 
L 356.990319 175.483249 
L 357.928585 175.523127 
L 358.797639 175.598531 
L 359.596274 175.70868 
L 360.323359 175.85275 
L 360.977842 176.029871 
L 361.558751 176.239131 
L 362.065198 176.479578 
L 362.496374 176.750218 
L 362.851556 177.050023 
L 363.130108 177.377927 
L 363.331477 177.732832 
L 363.455198 178.113607 
L 363.500895 178.519093 
L 363.468279 178.948102 
L 363.357151 179.39942 
L 363.167401 179.871812 
L 362.899009 180.364019 
L 362.552043 180.874764 
L 362.126664 181.402754 
L 361.623122 181.946678 
L 361.041757 182.505216 
L 360.382999 183.077036 
L 359.647366 183.660797 
L 358.835466 184.255153 
L 357.947997 184.858753 
L 356.985743 185.470246 
L 355.949574 186.088281 
L 354.84045 186.711509 
L 353.659413 187.338587 
L 352.407589 187.968179 
L 351.086188 188.598958 
L 349.696503 189.229609 
L 348.239904 189.85883 
L 346.717843 190.485335 
L 345.131846 191.107856 
L 343.483517 191.725143 
L 341.774534 192.33597 
L 340.006643 192.939134 
L 338.181664 193.533457 
L 336.301483 194.117787 
L 334.368051 194.691005 
L 332.383385 195.25202 
L 330.34956 195.799774 
L 328.268711 196.333244 
L 326.143031 196.851443 
L 323.974763 197.353419 
L 321.766205 197.838263 
L 319.519702 198.305103 
L 317.237645 198.753109 
L 314.922466 199.181496 
L 312.576641 199.58952 
L 310.202681 199.976485 
L 307.803132 200.341739 
L 305.380571 200.684679 
L 302.937603 201.004748 
L 300.476861 201.301439 
L 298.000997 201.574296 
L 295.512684 201.822911 
L 293.01461 202.046928 
L 290.509479 202.246042 
L 288 202.42 
z
" clip-path="url(#p226133357e)" style="fill: #4682b4; opacity: 0.3"/>
   </g>
   <g id="patch_5">
    <path d="M 288 202.42 
L 289.712098 203.854862 
L 291.407943 205.305527 
L 293.085718 206.770399 
L 294.743641 208.247848 
L 296.379967 209.736216 
L 297.992988 211.233815 
L 299.581036 212.73893 
L 301.142486 214.249825 
L 302.675756 215.76474 
L 304.179309 217.281896 
L 305.651656 218.799496 
L 307.091357 220.315728 
L 308.497021 221.828768 
L 309.867312 223.33678 
L 311.200944 224.83792 
L 312.496686 226.330338 
L 313.753366 227.812181 
L 314.969865 229.281595 
L 316.145125 230.736726 
L 317.278145 232.175724 
L 318.367987 233.596746 
L 319.413771 234.997957 
L 320.414681 236.377532 
L 321.369962 237.73366 
L 322.278921 239.064546 
L 323.140932 240.368413 
L 323.955429 241.643504 
L 324.721914 242.888085 
L 325.439949 244.100447 
L 326.109166 245.27891 
L 326.729257 246.421822 
L 327.299982 247.527563 
L 327.821163 248.59455 
L 328.292689 249.621234 
L 328.714511 250.606106 
L 329.086646 251.547697 
L 329.409172 252.444581 
L 329.682231 253.295379 
L 329.906028 254.098755 
L 330.080829 254.853426 
L 330.20696 255.558158 
L 330.284808 256.211769 
L 330.314818 256.813132 
L 330.297495 257.361178 
L 330.233399 257.854891 
L 330.123146 258.293319 
L 329.967407 258.675568 
L 329.766908 259.000808 
L 329.522425 259.268271 
L 329.234784 259.477254 
L 328.904862 259.627121 
L 328.533583 259.717303 
L 328.121916 259.747297 
L 327.670876 259.716672 
L 327.18152 259.625066 
L 326.654945 259.472186 
L 326.092288 259.257813 
L 325.494723 258.981798 
L 324.86346 258.644066 
L 324.199742 258.244615 
L 323.504843 257.783514 
L 322.780066 257.260908 
L 322.026745 256.677015 
L 321.246234 256.032127 
L 320.439916 255.326608 
L 319.609191 254.560897 
L 318.75548 253.735507 
L 317.880221 252.851023 
L 316.984866 251.908102 
L 316.07088 250.907474 
L 315.13974 249.849941 
L 314.19293 248.736375 
L 313.231941 247.567717 
L 312.258265 246.344979 
L 311.273401 245.06924 
L 310.278845 243.741648 
L 309.276089 242.363414 
L 308.266623 240.935816 
L 307.251931 239.460195 
L 306.233485 237.937954 
L 305.212748 236.370555 
L 304.191172 234.759522 
L 303.17019 233.106434 
L 302.151223 231.412927 
L 301.135669 229.68069 
L 300.124908 227.911465 
L 299.120295 226.107043 
L 298.123165 224.269265 
L 297.134822 222.400016 
L 296.156544 220.501225 
L 295.189581 218.574864 
L 294.235149 216.622945 
L 293.294433 214.647515 
L 292.368583 212.650658 
L 291.458714 210.634488 
L 290.565902 208.601152 
L 289.691187 206.552823 
L 288.835567 204.491699 
L 288 202.42 
z
" clip-path="url(#p226133357e)" style="fill: #4682b4; opacity: 0.3"/>
   </g>
   <g id="patch_6">
    <path d="M 288 202.42 
L 287.083341 204.692758 
L 286.144683 206.953916 
L 285.185076 209.201037 
L 284.205616 211.431709 
L 283.207444 213.643549 
L 282.19174 215.834202 
L 281.159727 218.001349 
L 280.112666 220.142703 
L 279.051859 222.256018 
L 277.978639 224.339087 
L 276.894376 226.389748 
L 275.800474 228.405884 
L 274.698363 230.385426 
L 273.589507 232.326355 
L 272.475393 234.226706 
L 271.357534 236.084569 
L 270.237466 237.89809 
L 269.116745 239.665475 
L 267.996946 241.384991 
L 266.879659 243.054967 
L 265.766489 244.673798 
L 264.659055 246.239945 
L 263.558981 247.751937 
L 262.467902 249.208373 
L 261.387456 250.607923 
L 260.319285 251.949328 
L 259.265031 253.231405 
L 258.226333 254.453043 
L 257.204825 255.613211 
L 256.202137 256.71095 
L 255.219887 257.745382 
L 254.259684 258.715706 
L 253.323119 259.6212 
L 252.411772 260.461224 
L 251.5272 261.235214 
L 250.670941 261.942689 
L 249.844509 262.583249 
L 249.049393 263.156574 
L 248.287053 263.662425 
L 247.55892 264.100643 
L 246.866393 264.471152 
L 246.210834 264.773954 
L 245.593571 265.009133 
L 245.015892 265.176849 
L 244.479043 265.277346 
L 243.984229 265.310943 
L 243.53261 265.278038 
L 243.125299 265.179104 
L 242.763358 265.014693 
L 242.447801 264.785427 
L 242.17959 264.492007 
L 241.959632 264.135203 
L 241.78878 263.715856 
L 241.667827 263.234878 
L 241.59751 262.693249 
L 241.578505 262.092016 
L 241.611428 261.43229 
L 241.696831 260.715246 
L 241.835203 259.942119 
L 242.026968 259.114207 
L 242.272485 258.232862 
L 242.572045 257.299495 
L 242.925872 256.315567 
L 243.334123 255.282595 
L 243.796883 254.202141 
L 244.314171 253.075816 
L 244.885933 251.905278 
L 245.512047 250.692223 
L 246.192318 249.438391 
L 246.926483 248.145558 
L 247.714204 246.815535 
L 248.555076 245.450167 
L 249.448621 244.051328 
L 250.39429 242.62092 
L 251.391465 241.160871 
L 252.439456 239.673129 
L 253.537505 238.159666 
L 254.684783 236.622467 
L 255.880394 235.063534 
L 257.123375 233.48488 
L 258.412695 231.888527 
L 259.747256 230.276506 
L 261.125897 228.650849 
L 262.547392 227.013591 
L 264.010453 225.366765 
L 265.513731 223.7124 
L 267.055817 222.052519 
L 268.635241 220.389135 
L 270.25048 218.724251 
L 271.899954 217.059855 
L 273.582028 215.397916 
L 275.295018 213.740388 
L 277.037187 212.0892 
L 278.806752 210.446259 
L 280.601885 208.813444 
L 282.42071 207.192608 
L 284.261314 205.585569 
L 286.121742 203.994116 
L 288 202.42 
z
" clip-path="url(#p226133357e)" style="fill: #4682b4; opacity: 0.3"/>
   </g>
   <g id="patch_7">
    <path d="M 288 202.42 
L 286.18158 202.293946 
L 284.366309 202.149664 
L 282.556154 201.987337 
L 280.75307 201.807185 
L 278.959008 201.609468 
L 277.175903 201.394479 
L 275.405678 201.16255 
L 273.65024 200.914049 
L 271.911476 200.649378 
L 270.191256 200.368976 
L 268.491422 200.073313 
L 266.813796 199.762895 
L 265.16017 199.43826 
L 263.532307 199.099978 
L 261.93194 198.74865 
L 260.360769 198.384908 
L 258.820456 198.009411 
L 257.31263 197.622847 
L 255.838878 197.225933 
L 254.400748 196.81941 
L 252.999743 196.404045 
L 251.637325 195.980626 
L 250.314908 195.549968 
L 249.033857 195.112903 
L 247.795492 194.670285 
L 246.601079 194.222986 
L 245.451833 193.771894 
L 244.348916 193.317916 
L 243.293434 192.861969 
L 242.286439 192.404986 
L 241.328925 191.947911 
L 240.421827 191.491695 
L 239.566023 191.037301 
L 238.762329 190.585697 
L 238.0115 190.137856 
L 237.31423 189.694756 
L 236.671152 189.257375 
L 236.082832 188.826692 
L 235.549777 188.403687 
L 235.072427 187.989335 
L 234.651158 187.584606 
L 234.286281 187.190467 
L 233.978043 186.807875 
L 233.726624 186.437778 
L 233.532142 186.081115 
L 233.394645 185.73881 
L 233.314119 185.411775 
L 233.290485 185.100907 
L 233.323598 184.807084 
L 233.413249 184.531166 
L 233.559165 184.273995 
L 233.761009 184.036388 
L 234.018382 183.819143 
L 234.330821 183.623032 
L 234.697803 183.448799 
L 235.118742 183.297165 
L 235.592994 183.168819 
L 236.119855 183.064423 
L 236.698562 182.984607 
L 237.328297 182.929968 
L 238.008183 182.901072 
L 238.737292 182.898447 
L 239.51464 182.922591 
L 240.339191 182.97396 
L 241.209858 183.052975 
L 242.125507 183.160019 
L 243.084953 183.295436 
L 244.086968 183.459529 
L 245.130275 183.652559 
L 246.213559 183.874749 
L 247.33546 184.126277 
L 248.494581 184.407279 
L 249.689485 184.717849 
L 250.918702 185.058034 
L 252.180724 185.427842 
L 253.474016 185.827231 
L 254.797009 186.256119 
L 256.148108 186.714376 
L 257.52569 187.201827 
L 258.92811 187.718255 
L 260.353701 188.263395 
L 261.800774 188.836936 
L 263.267624 189.438526 
L 264.752531 190.067763 
L 266.253761 190.724205 
L 267.769566 191.407363 
L 269.298194 192.116705 
L 270.837881 192.851656 
L 272.386861 193.611596 
L 273.943366 194.395866 
L 275.505624 195.203762 
L 277.071869 196.034541 
L 278.640335 196.887419 
L 280.209265 197.761573 
L 281.776907 198.656139 
L 283.341523 199.570219 
L 284.901383 200.502877 
L 286.454774 201.453139 
L 288 202.42 
z
" clip-path="url(#p226133357e)" style="fill: #4682b4; opacity: 0.3"/>
   </g>
   <g id="matplotlib.axis_1">
    <g id="xtick_1">
     <g id="line2d_1">
      <path d="M 288 202.42 
L 288 98.48 
" clip-path="url(#p226133357e)" style="fill: none; stroke: #b0b0b0; stroke-width: 0.8; stroke-linecap: square"/>
     </g>
     <g id="text_1">
      <text style="font-size: 10px; font-family: 'DejaVu Sans', 'Bitstream Vera Sans', 'Computer Modern Sans Serif', 'Lucida Grande', 'Verdana', 'Geneva', 'Lucid', 'Arial', 'Helvetica', 'Avant Garde', sans-serif; text-anchor: middle" x="288" y="87.239375" transform="rotate(-0 288 87.239375)">Striatum</text>
     </g>
    </g>
    <g id="xtick_2">
     <g id="line2d_2">
      <path d="M 288 202.42 
L 386.852814 170.300774 
" clip-path="url(#p226133357e)" style="fill: none; stroke: #b0b0b0; stroke-width: 0.8; stroke-linecap: square"/>
     </g>
     <g id="text_2">
      <text style="font-size: 10px; font-family: 'DejaVu Sans', 'Bitstream Vera Sans', 'Computer Modern Sans Serif', 'Lucida Grande', 'Verdana', 'Geneva', 'Lucid', 'Arial', 'Helvetica', 'Avant Garde', sans-serif; text-anchor: middle" x="400.167606" y="168.733911" transform="rotate(-0 400.167606 168.733911)">mPFC</text>
     </g>
    </g>
    <g id="xtick_3">
     <g id="line2d_3">
      <path d="M 288 202.42 
L 349.094399 286.509226 
" clip-path="url(#p226133357e)" style="fill: none; stroke: #b0b0b0; stroke-width: 0.8; stroke-linecap: square"/>
     </g>
     <g id="text_3">
      <text style="font-size: 10px; font-family: 'DejaVu Sans', 'Bitstream Vera Sans', 'Computer Modern Sans Serif', 'Lucida Grande', 'Verdana', 'Geneva', 'Lucid', 'Arial', 'Helvetica', 'Avant Garde', sans-serif; text-anchor: middle" x="357.323393" y="300.594839" transform="rotate(-0 357.323393 300.594839)">ACC</text>
     </g>
    </g>
    <g id="xtick_4">
     <g id="line2d_4">
      <path d="M 288 202.42 
L 226.905601 286.509226 
" clip-path="url(#p226133357e)" style="fill: none; stroke: #b0b0b0; stroke-width: 0.8; stroke-linecap: square"/>
     </g>
     <g id="text_4">
      <text style="font-size: 10px; font-family: 'DejaVu Sans', 'Bitstream Vera Sans', 'Computer Modern Sans Serif', 'Lucida Grande', 'Verdana', 'Geneva', 'Lucid', 'Arial', 'Helvetica', 'Avant Garde', sans-serif; text-anchor: middle" x="218.676607" y="300.594839" transform="rotate(-0 218.676607 300.594839)">dlPFC</text>
     </g>
    </g>
    <g id="xtick_5">
     <g id="line2d_5">
      <path d="M 288 202.42 
L 189.147186 170.300774 
" clip-path="url(#p226133357e)" style="fill: none; stroke: #b0b0b0; stroke-width: 0.8; stroke-linecap: square"/>
     </g>
     <g id="text_5">
      <text style="font-size: 10px; font-family: 'DejaVu Sans', 'Bitstream Vera Sans', 'Computer Modern Sans Serif', 'Lucida Grande', 'Verdana', 'Geneva', 'Lucid', 'Arial', 'Helvetica', 'Avant Garde', sans-serif; text-anchor: middle" x="175.832394" y="168.733911" transform="rotate(-0 175.832394 168.733911)">Thalamus</text>
     </g>
    </g>
   </g>
   <g id="matplotlib.axis_2">
    <g id="ytick_1">
     <g id="line2d_6">
      <path d="M 288 202.42 
C 288 202.42 288 202.42 288 202.42 
C 288 202.42 288 202.42 288 202.42 
C 288 202.42 288 202.42 288 202.42 
C 288 202.42 288 202.42 288 202.42 
C 288 202.42 288 202.42 288 202.42 
C 288 202.42 288 202.42 288 202.42 
C 288 202.42 288 202.42 288 202.42 
C 288 202.42 288 202.42 288 202.42 
C 288 202.42 288 202.42 288 202.42 
C 288 202.42 288 202.42 288 202.42 
C 288 202.42 288 202.42 288 202.42 
C 288 202.42 288 202.42 288 202.42 
C 288 202.42 288 202.42 288 202.42 
C 288 202.42 288 202.42 288 202.42 
C 288 202.42 288 202.42 288 202.42 
C 288 202.42 288 202.42 288 202.42 
" clip-path="url(#p226133357e)" style="fill: none; stroke: #808080; stroke-width: 0.5; stroke-linecap: square"/>
     </g>
    </g>
    <g id="ytick_2">
     <g id="line2d_7">
      <path d="M 288 176.435 
C 291.412319 176.435 294.791457 177.107152 297.944029 178.41299 
C 301.096601 179.718828 303.961296 181.632956 306.37417 184.04583 
C 308.787044 186.458704 310.701172 189.323399 312.00701 192.475971 
C 313.312848 195.628543 313.985 199.007681 313.985 202.42 
C 313.985 205.832319 313.312848 209.211457 312.00701 212.364029 
C 310.701172 215.516601 308.787044 218.381296 306.37417 220.79417 
C 303.961296 223.207044 301.096601 225.121172 297.944029 226.42701 
C 294.791457 227.732848 291.412319 228.405 288 228.405 
C 284.587681 228.405 281.208543 227.732848 278.055971 226.42701 
C 274.903399 225.121172 272.038704 223.207044 269.62583 220.79417 
C 267.212956 218.381296 265.298828 215.516601 263.99299 212.364029 
C 262.687152 209.211457 262.015 205.832319 262.015 202.42 
C 262.015 199.007681 262.687152 195.628543 263.99299 192.475971 
C 265.298828 189.323399 267.212956 186.458704 269.62583 184.04583 
C 272.038704 181.632956 274.903399 179.718828 278.055971 178.41299 
C 281.208543 177.107152 284.587681 176.435 288 176.435 
" clip-path="url(#p226133357e)" style="fill: none; stroke: #808080; stroke-width: 0.5; stroke-linecap: square"/>
     </g>
    </g>
    <g id="ytick_3">
     <g id="line2d_8">
      <path d="M 288 150.45 
C 294.824638 150.45 301.582915 151.794305 307.888058 154.405981 
C 314.193201 157.017657 319.922592 160.845913 324.748339 165.671661 
C 329.574087 170.497408 333.402343 176.226799 336.014019 182.531942 
C 338.625695 188.837085 339.97 195.595362 339.97 202.42 
C 339.97 209.244638 338.625695 216.002915 336.014019 222.308058 
C 333.402343 228.613201 329.574087 234.342592 324.748339 239.168339 
C 319.922592 243.994087 314.193201 247.822343 307.888058 250.434019 
C 301.582915 253.045695 294.824638 254.39 288 254.39 
C 281.175362 254.39 274.417085 253.045695 268.111942 250.434019 
C 261.806799 247.822343 256.077408 243.994087 251.251661 239.168339 
C 246.425913 234.342592 242.597657 228.613201 239.985981 222.308058 
C 237.374305 216.002915 236.03 209.244638 236.03 202.42 
C 236.03 195.595362 237.374305 188.837085 239.985981 182.531942 
C 242.597657 176.226799 246.425913 170.497408 251.251661 165.671661 
C 256.077408 160.845913 261.806799 157.017657 268.111942 154.405981 
C 274.417085 151.794305 281.175362 150.45 288 150.45 
" clip-path="url(#p226133357e)" style="fill: none; stroke: #000000; stroke-width: 0.5; stroke-linecap: square"/>
     </g>
    </g>
    <g id="ytick_4">
     <g id="line2d_9">
      <path d="M 288 124.465 
C 298.236957 124.465 308.374372 126.481457 317.832087 130.398971 
C 327.289802 134.316485 335.883888 140.058869 343.122509 147.297491 
C 350.361131 154.536112 356.103515 163.130198 360.021029 172.587913 
C 363.938543 182.045628 365.955 192.183043 365.955 202.42 
C 365.955 212.656957 363.938543 222.794372 360.021029 232.252087 
C 356.103515 241.709802 350.361131 250.303888 343.122509 257.542509 
C 335.883888 264.781131 327.289802 270.523515 317.832087 274.441029 
C 308.374372 278.358543 298.236957 280.375 288 280.375 
C 277.763043 280.375 267.625628 278.358543 258.167913 274.441029 
C 248.710198 270.523515 240.116112 264.781131 232.877491 257.542509 
C 225.638869 250.303888 219.896485 241.709802 215.978971 232.252087 
C 212.061457 222.794372 210.045 212.656957 210.045 202.42 
C 210.045 192.183043 212.061457 182.045628 215.978971 172.587913 
C 219.896485 163.130198 225.638869 154.536112 232.877491 147.297491 
C 240.116112 140.058869 248.710198 134.316485 258.167913 130.398971 
C 267.625628 126.481457 277.763043 124.465 288 124.465 
" clip-path="url(#p226133357e)" style="fill: none; stroke: #808080; stroke-width: 0.5; stroke-linecap: square"/>
     </g>
    </g>
    <g id="ytick_5">
     <g id="line2d_10">
      <path d="M 288 98.48 
C 301.649276 98.48 315.165829 101.16861 327.776116 106.391961 
C 340.386402 111.615313 351.845183 119.271826 361.496679 128.923321 
C 371.148174 138.574817 378.804687 150.033598 384.028039 162.643884 
C 389.25139 175.254171 391.94 188.770724 391.94 202.42 
C 391.94 216.069276 389.25139 229.585829 384.028039 242.196116 
C 378.804687 254.806402 371.148174 266.265183 361.496679 275.916679 
C 351.845183 285.568174 340.386402 293.224687 327.776116 298.448039 
C 315.165829 303.67139 301.649276 306.36 288 306.36 
C 274.350724 306.36 260.834171 303.67139 248.223884 298.448039 
C 235.613598 293.224687 224.154817 285.568174 214.503321 275.916679 
C 204.851826 266.265183 197.195313 254.806402 191.971961 242.196116 
C 186.74861 229.585829 184.06 216.069276 184.06 202.42 
C 184.06 188.770724 186.74861 175.254171 191.971961 162.643884 
C 197.195313 150.033598 204.851826 138.574817 214.503321 128.923321 
C 224.154817 119.271826 235.613598 111.615313 248.223884 106.391961 
C 260.834171 101.16861 274.350724 98.48 288 98.48 
" clip-path="url(#p226133357e)" style="fill: none; stroke: #808080; stroke-width: 0.5; stroke-linecap: square"/>
     </g>
    </g>
   </g>
   <g id="line2d_11">
    <path d="M 288 202.42 
L 287.481165 200.344403 
L 286.983821 198.26571 
L 286.508475 196.186182 
L 286.055591 194.108084 
L 285.625588 192.033685 
L 285.218839 189.965253 
L 284.835671 187.905054 
L 284.476366 185.855351 
L 284.141159 183.818397 
L 283.830239 181.796436 
L 283.543749 179.791698 
L 283.281783 177.806398 
L 283.044393 175.842732 
L 282.831581 173.902875 
L 282.643305 171.988981 
L 282.479477 170.103173 
L 282.339963 168.24755 
L 282.224584 166.424177 
L 282.133119 164.635087 
L 282.0653 162.882275 
L 282.020818 161.167699 
L 281.999321 159.493275 
L 282.000413 157.860878 
L 282.023662 156.272334 
L 282.068591 154.729426 
L 282.134687 153.233882 
L 282.221399 151.787383 
L 282.328137 150.391552 
L 282.454277 149.04796 
L 282.59916 147.758116 
L 282.762094 146.523474 
L 282.942353 145.345423 
L 283.139184 144.22529 
L 283.3518 143.164339 
L 283.579391 142.163766 
L 283.821116 141.2247 
L 284.076111 140.348201 
L 284.343491 139.535258 
L 284.622345 138.786791 
L 284.911744 138.103645 
L 285.210741 137.486591 
L 285.518371 136.936329 
L 285.833654 136.45348 
L 286.155598 136.038589 
L 286.483196 135.692128 
L 286.815436 135.414487 
L 287.151293 135.205981 
L 287.489739 135.066845 
L 287.82974 134.997238 
L 288.17026 134.997238 
L 288.510261 135.066845 
L 288.848707 135.205981 
L 289.184564 135.414487 
L 289.516804 135.692128 
L 289.844402 136.038589 
L 290.166346 136.45348 
L 290.481629 136.936329 
L 290.789259 137.486591 
L 291.088256 138.103645 
L 291.377655 138.786791 
L 291.656509 139.535258 
L 291.923889 140.348201 
L 292.178884 141.2247 
L 292.420609 142.163766 
L 292.6482 143.164339 
L 292.860816 144.22529 
L 293.057647 145.345423 
L 293.237906 146.523474 
L 293.40084 147.758116 
L 293.545723 149.04796 
L 293.671863 150.391552 
L 293.778601 151.787383 
L 293.865313 153.233882 
L 293.931409 154.729426 
L 293.976338 156.272334 
L 293.999587 157.860878 
L 294.000679 159.493275 
L 293.979182 161.167699 
L 293.9347 162.882275 
L 293.866881 164.635087 
L 293.775416 166.424177 
L 293.660037 168.24755 
L 293.520523 170.103173 
L 293.356695 171.988981 
L 293.168419 173.902875 
L 292.955607 175.842732 
L 292.718217 177.806398 
L 292.456251 179.791698 
L 292.169761 181.796436 
L 291.858841 183.818397 
L 291.523634 185.855351 
L 291.164329 187.905054 
L 290.781161 189.965253 
L 290.374412 192.033685 
L 289.944409 194.108084 
L 289.491525 196.186182 
L 289.016179 198.26571 
L 288.518835 200.344403 
L 288 202.42 
" clip-path="url(#p226133357e)" style="fill: none; stroke: #4682b4; stroke-width: 1.5; stroke-linecap: square"/>
   </g>
   <g id="line2d_12">
    <path d="M 288 202.42 
L 290.132461 201.085701 
L 292.276191 199.774308 
L 294.428849 198.487211 
L 296.588069 197.225751 
L 298.751466 195.99122 
L 300.916639 194.78486 
L 303.081173 193.607861 
L 305.242641 192.461359 
L 307.398609 191.346436 
L 309.546635 190.264119 
L 311.684278 189.215376 
L 313.809096 188.201121 
L 315.918651 187.222206 
L 318.010512 186.279426 
L 320.082256 185.373515 
L 322.131476 184.505147 
L 324.155777 183.674934 
L 326.152785 182.883428 
L 328.120145 182.131118 
L 330.055531 181.418431 
L 331.956639 180.745732 
L 333.821198 180.113323 
L 335.646971 179.521444 
L 337.431755 178.970274 
L 339.173388 178.459928 
L 340.869746 177.99046 
L 342.518752 177.561865 
L 344.118376 177.174073 
L 345.666636 176.826956 
L 347.161603 176.520327 
L 348.601401 176.253938 
L 349.984213 176.027485 
L 351.30828 175.840606 
L 352.571904 175.692881 
L 353.773454 175.583837 
L 354.91136 175.512946 
L 355.984125 175.479628 
L 356.990319 175.483249 
L 357.928585 175.523127 
L 358.797639 175.598531 
L 359.596274 175.70868 
L 360.323359 175.85275 
L 360.977842 176.029871 
L 361.558751 176.239131 
L 362.065198 176.479578 
L 362.496374 176.750218 
L 362.851556 177.050023 
L 363.130108 177.377927 
L 363.331477 177.732832 
L 363.455198 178.113607 
L 363.500895 178.519093 
L 363.468279 178.948102 
L 363.357151 179.39942 
L 363.167401 179.871812 
L 362.899009 180.364019 
L 362.552043 180.874764 
L 362.126664 181.402754 
L 361.623122 181.946678 
L 361.041757 182.505216 
L 360.382999 183.077036 
L 359.647366 183.660797 
L 358.835466 184.255153 
L 357.947997 184.858753 
L 356.985743 185.470246 
L 355.949574 186.088281 
L 354.84045 186.711509 
L 353.659413 187.338587 
L 352.407589 187.968179 
L 351.086188 188.598958 
L 349.696503 189.229609 
L 348.239904 189.85883 
L 346.717843 190.485335 
L 345.131846 191.107856 
L 343.483517 191.725143 
L 341.774534 192.33597 
L 340.006643 192.939134 
L 338.181664 193.533457 
L 336.301483 194.117787 
L 334.368051 194.691005 
L 332.383385 195.25202 
L 330.34956 195.799774 
L 328.268711 196.333244 
L 326.143031 196.851443 
L 323.974763 197.353419 
L 321.766205 197.838263 
L 319.519702 198.305103 
L 317.237645 198.753109 
L 314.922466 199.181496 
L 312.576641 199.58952 
L 310.202681 199.976485 
L 307.803132 200.341739 
L 305.380571 200.684679 
L 302.937603 201.004748 
L 300.476861 201.301439 
L 298.000997 201.574296 
L 295.512684 201.822911 
L 293.01461 202.046928 
L 290.509479 202.246042 
L 288 202.42 
" clip-path="url(#p226133357e)" style="fill: none; stroke: #4682b4; stroke-width: 1.5; stroke-linecap: square"/>
   </g>
   <g id="line2d_13">
    <path d="M 288 202.42 
L 289.712098 203.854862 
L 291.407943 205.305527 
L 293.085718 206.770399 
L 294.743641 208.247848 
L 296.379967 209.736216 
L 297.992988 211.233815 
L 299.581036 212.73893 
L 301.142486 214.249825 
L 302.675756 215.76474 
L 304.179309 217.281896 
L 305.651656 218.799496 
L 307.091357 220.315728 
L 308.497021 221.828768 
L 309.867312 223.33678 
L 311.200944 224.83792 
L 312.496686 226.330338 
L 313.753366 227.812181 
L 314.969865 229.281595 
L 316.145125 230.736726 
L 317.278145 232.175724 
L 318.367987 233.596746 
L 319.413771 234.997957 
L 320.414681 236.377532 
L 321.369962 237.73366 
L 322.278921 239.064546 
L 323.140932 240.368413 
L 323.955429 241.643504 
L 324.721914 242.888085 
L 325.439949 244.100447 
L 326.109166 245.27891 
L 326.729257 246.421822 
L 327.299982 247.527563 
L 327.821163 248.59455 
L 328.292689 249.621234 
L 328.714511 250.606106 
L 329.086646 251.547697 
L 329.409172 252.444581 
L 329.682231 253.295379 
L 329.906028 254.098755 
L 330.080829 254.853426 
L 330.20696 255.558158 
L 330.284808 256.211769 
L 330.314818 256.813132 
L 330.297495 257.361178 
L 330.233399 257.854891 
L 330.123146 258.293319 
L 329.967407 258.675568 
L 329.766908 259.000808 
L 329.522425 259.268271 
L 329.234784 259.477254 
L 328.904862 259.627121 
L 328.533583 259.717303 
L 328.121916 259.747297 
L 327.670876 259.716672 
L 327.18152 259.625066 
L 326.654945 259.472186 
L 326.092288 259.257813 
L 325.494723 258.981798 
L 324.86346 258.644066 
L 324.199742 258.244615 
L 323.504843 257.783514 
L 322.780066 257.260908 
L 322.026745 256.677015 
L 321.246234 256.032127 
L 320.439916 255.326608 
L 319.609191 254.560897 
L 318.75548 253.735507 
L 317.880221 252.851023 
L 316.984866 251.908102 
L 316.07088 250.907474 
L 315.13974 249.849941 
L 314.19293 248.736375 
L 313.231941 247.567717 
L 312.258265 246.344979 
L 311.273401 245.06924 
L 310.278845 243.741648 
L 309.276089 242.363414 
L 308.266623 240.935816 
L 307.251931 239.460195 
L 306.233485 237.937954 
L 305.212748 236.370555 
L 304.191172 234.759522 
L 303.17019 233.106434 
L 302.151223 231.412927 
L 301.135669 229.68069 
L 300.124908 227.911465 
L 299.120295 226.107043 
L 298.123165 224.269265 
L 297.134822 222.400016 
L 296.156544 220.501225 
L 295.189581 218.574864 
L 294.235149 216.622945 
L 293.294433 214.647515 
L 292.368583 212.650658 
L 291.458714 210.634488 
L 290.565902 208.601152 
L 289.691187 206.552823 
L 288.835567 204.491699 
L 288 202.42 
" clip-path="url(#p226133357e)" style="fill: none; stroke: #4682b4; stroke-width: 1.5; stroke-linecap: square"/>
   </g>
   <g id="line2d_14">
    <path d="M 288 202.42 
L 287.083341 204.692758 
L 286.144683 206.953916 
L 285.185076 209.201037 
L 284.205616 211.431709 
L 283.207444 213.643549 
L 282.19174 215.834202 
L 281.159727 218.001349 
L 280.112666 220.142703 
L 279.051859 222.256018 
L 277.978639 224.339087 
L 276.894376 226.389748 
L 275.800474 228.405884 
L 274.698363 230.385426 
L 273.589507 232.326355 
L 272.475393 234.226706 
L 271.357534 236.084569 
L 270.237466 237.89809 
L 269.116745 239.665475 
L 267.996946 241.384991 
L 266.879659 243.054967 
L 265.766489 244.673798 
L 264.659055 246.239945 
L 263.558981 247.751937 
L 262.467902 249.208373 
L 261.387456 250.607923 
L 260.319285 251.949328 
L 259.265031 253.231405 
L 258.226333 254.453043 
L 257.204825 255.613211 
L 256.202137 256.71095 
L 255.219887 257.745382 
L 254.259684 258.715706 
L 253.323119 259.6212 
L 252.411772 260.461224 
L 251.5272 261.235214 
L 250.670941 261.942689 
L 249.844509 262.583249 
L 249.049393 263.156574 
L 248.287053 263.662425 
L 247.55892 264.100643 
L 246.866393 264.471152 
L 246.210834 264.773954 
L 245.593571 265.009133 
L 245.015892 265.176849 
L 244.479043 265.277346 
L 243.984229 265.310943 
L 243.53261 265.278038 
L 243.125299 265.179104 
L 242.763358 265.014693 
L 242.447801 264.785427 
L 242.17959 264.492007 
L 241.959632 264.135203 
L 241.78878 263.715856 
L 241.667827 263.234878 
L 241.59751 262.693249 
L 241.578505 262.092016 
L 241.611428 261.43229 
L 241.696831 260.715246 
L 241.835203 259.942119 
L 242.026968 259.114207 
L 242.272485 258.232862 
L 242.572045 257.299495 
L 242.925872 256.315567 
L 243.334123 255.282595 
L 243.796883 254.202141 
L 244.314171 253.075816 
L 244.885933 251.905278 
L 245.512047 250.692223 
L 246.192318 249.438391 
L 246.926483 248.145558 
L 247.714204 246.815535 
L 248.555076 245.450167 
L 249.448621 244.051328 
L 250.39429 242.62092 
L 251.391465 241.160871 
L 252.439456 239.673129 
L 253.537505 238.159666 
L 254.684783 236.622467 
L 255.880394 235.063534 
L 257.123375 233.48488 
L 258.412695 231.888527 
L 259.747256 230.276506 
L 261.125897 228.650849 
L 262.547392 227.013591 
L 264.010453 225.366765 
L 265.513731 223.7124 
L 267.055817 222.052519 
L 268.635241 220.389135 
L 270.25048 218.724251 
L 271.899954 217.059855 
L 273.582028 215.397916 
L 275.295018 213.740388 
L 277.037187 212.0892 
L 278.806752 210.446259 
L 280.601885 208.813444 
L 282.42071 207.192608 
L 284.261314 205.585569 
L 286.121742 203.994116 
L 288 202.42 
" clip-path="url(#p226133357e)" style="fill: none; stroke: #4682b4; stroke-width: 1.5; stroke-linecap: square"/>
   </g>
   <g id="line2d_15">
    <path d="M 288 202.42 
L 286.18158 202.293946 
L 284.366309 202.149664 
L 282.556154 201.987337 
L 280.75307 201.807185 
L 278.959008 201.609468 
L 277.175903 201.394479 
L 275.405678 201.16255 
L 273.65024 200.914049 
L 271.911476 200.649378 
L 270.191256 200.368976 
L 268.491422 200.073313 
L 266.813796 199.762895 
L 265.16017 199.43826 
L 263.532307 199.099978 
L 261.93194 198.74865 
L 260.360769 198.384908 
L 258.820456 198.009411 
L 257.31263 197.622847 
L 255.838878 197.225933 
L 254.400748 196.81941 
L 252.999743 196.404045 
L 251.637325 195.980626 
L 250.314908 195.549968 
L 249.033857 195.112903 
L 247.795492 194.670285 
L 246.601079 194.222986 
L 245.451833 193.771894 
L 244.348916 193.317916 
L 243.293434 192.861969 
L 242.286439 192.404986 
L 241.328925 191.947911 
L 240.421827 191.491695 
L 239.566023 191.037301 
L 238.762329 190.585697 
L 238.0115 190.137856 
L 237.31423 189.694756 
L 236.671152 189.257375 
L 236.082832 188.826692 
L 235.549777 188.403687 
L 235.072427 187.989335 
L 234.651158 187.584606 
L 234.286281 187.190467 
L 233.978043 186.807875 
L 233.726624 186.437778 
L 233.532142 186.081115 
L 233.394645 185.73881 
L 233.314119 185.411775 
L 233.290485 185.100907 
L 233.323598 184.807084 
L 233.413249 184.531166 
L 233.559165 184.273995 
L 233.761009 184.036388 
L 234.018382 183.819143 
L 234.330821 183.623032 
L 234.697803 183.448799 
L 235.118742 183.297165 
L 235.592994 183.168819 
L 236.119855 183.064423 
L 236.698562 182.984607 
L 237.328297 182.929968 
L 238.008183 182.901072 
L 238.737292 182.898447 
L 239.51464 182.922591 
L 240.339191 182.97396 
L 241.209858 183.052975 
L 242.125507 183.160019 
L 243.084953 183.295436 
L 244.086968 183.459529 
L 245.130275 183.652559 
L 246.213559 183.874749 
L 247.33546 184.126277 
L 248.494581 184.407279 
L 249.689485 184.717849 
L 250.918702 185.058034 
L 252.180724 185.427842 
L 253.474016 185.827231 
L 254.797009 186.256119 
L 256.148108 186.714376 
L 257.52569 187.201827 
L 258.92811 187.718255 
L 260.353701 188.263395 
L 261.800774 188.836936 
L 263.267624 189.438526 
L 264.752531 190.067763 
L 266.253761 190.724205 
L 267.769566 191.407363 
L 269.298194 192.116705 
L 270.837881 192.851656 
L 272.386861 193.611596 
L 273.943366 194.395866 
L 275.505624 195.203762 
L 277.071869 196.034541 
L 278.640335 196.887419 
L 280.209265 197.761573 
L 281.776907 198.656139 
L 283.341523 199.570219 
L 284.901383 200.502877 
L 286.454774 201.453139 
L 288 202.42 
" clip-path="url(#p226133357e)" style="fill: none; stroke: #4682b4; stroke-width: 1.5; stroke-linecap: square"/>
   </g>
   <g id="patch_8">
    <path d="M 288 98.48 
C 274.350724 98.48 260.834171 101.16861 248.223884 106.391961 
C 235.613598 111.615313 224.154817 119.271826 214.503321 128.923321 
C 204.851826 138.574817 197.195313 150.033598 191.971961 162.643884 
C 186.74861 175.254171 184.06 188.770724 184.06 202.42 
C 184.06 216.069276 186.74861 229.585829 191.971961 242.196116 
C 197.195313 254.806402 204.851826 266.265183 214.503321 275.916679 
C 224.154817 285.568174 235.613598 293.224687 248.223884 298.448039 
C 260.834171 303.67139 274.350724 306.36 288 306.36 
C 301.649276 306.36 315.165829 303.67139 327.776116 298.448039 
C 340.386402 293.224687 351.845183 285.568174 361.496679 275.916679 
C 371.148174 266.265183 378.804687 254.806402 384.028039 242.196116 
C 389.25139 229.585829 391.94 216.069276 391.94 202.42 
C 391.94 188.770724 389.25139 175.254171 384.028039 162.643884 
C 378.804687 150.033598 371.148174 138.574817 361.496679 128.923321 
C 351.845183 119.271826 340.386402 111.615313 327.776116 106.391961 
C 315.165829 101.16861 301.649276 98.48 288 98.48 
" style="fill: none; stroke: #000000; stroke-width: 0.5; stroke-linejoin: miter; stroke-linecap: square"/>
   </g>
   <g id="text_6">
    <text style="font-weight: 700; font-size: 12px; font-family: 'DejaVu Sans', 'Bitstream Vera Sans', 'Computer Modern Sans Serif', 'Lucida Grande', 'Verdana', 'Geneva', 'Lucid', 'Arial', 'Helvetica', 'Avant Garde', sans-serif; text-anchor: middle" x="288" y="67.640938" transform="rotate(-0 288 67.640938)">OFC</text>
   </g>
  </g>
  <g id="axes_2">
   <g id="patch_9">
    <path d="M 391.94 461.26 
C 391.94 447.610724 389.25139 434.094171 384.028039 421.483884 
C 378.804687 408.873598 371.148174 397.414817 361.496679 387.763321 
C 351.845183 378.111826 340.386402 370.455313 327.776116 365.231961 
C 315.165829 360.00861 301.649276 357.32 288 357.32 
C 274.350724 357.32 260.834171 360.00861 248.223884 365.231961 
C 235.613598 370.455313 224.154817 378.111826 214.503321 387.763321 
C 204.851826 397.414817 197.195313 408.873598 191.971961 421.483884 
C 186.74861 434.094171 184.06 447.610724 184.06 461.26 
C 184.06 474.909276 186.74861 488.425829 191.971961 501.036116 
C 197.195313 513.646402 204.851826 525.105183 214.503321 534.756679 
C 224.154817 544.408174 235.613598 552.064687 248.223884 557.288039 
C 260.834171 562.51139 274.350724 565.2 288 565.2 
C 301.649276 565.2 315.165829 562.51139 327.776116 557.288039 
C 340.386402 552.064687 351.845183 544.408174 361.496679 534.756679 
C 371.148174 525.105183 378.804687 513.646402 384.028039 501.036116 
C 389.25139 488.425829 391.94 474.909276 391.94 461.26 
M 288 461.26 
C 288 461.26 288 461.26 288 461.26 
C 288 461.26 288 461.26 288 461.26 
C 288 461.26 288 461.26 288 461.26 
C 288 461.26 288 461.26 288 461.26 
C 288 461.26 288 461.26 288 461.26 
C 288 461.26 288 461.26 288 461.26 
C 288 461.26 288 461.26 288 461.26 
C 288 461.26 288 461.26 288 461.26 
C 288 461.26 288 461.26 288 461.26 
C 288 461.26 288 461.26 288 461.26 
C 288 461.26 288 461.26 288 461.26 
C 288 461.26 288 461.26 288 461.26 
C 288 461.26 288 461.26 288 461.26 
C 288 461.26 288 461.26 288 461.26 
C 288 461.26 288 461.26 288 461.26 
C 288 461.26 288 461.26 288 461.26 
z
" style="fill: #ffffff"/>
   </g>
   <g id="patch_10">
    <path d="M 288 461.26 
L 287.481165 459.184403 
L 286.983821 457.10571 
L 286.508475 455.026182 
L 286.055591 452.948084 
L 285.625588 450.873685 
L 285.218839 448.805253 
L 284.835671 446.745054 
L 284.476366 444.695351 
L 284.141159 442.658397 
L 283.830239 440.636436 
L 283.543749 438.631698 
L 283.281783 436.646398 
L 283.044393 434.682732 
L 282.831581 432.742875 
L 282.643305 430.828981 
L 282.479477 428.943173 
L 282.339963 427.08755 
L 282.224584 425.264177 
L 282.133119 423.475087 
L 282.0653 421.722275 
L 282.020818 420.007699 
L 281.999321 418.333275 
L 282.000413 416.700878 
L 282.023662 415.112334 
L 282.068591 413.569426 
L 282.134687 412.073882 
L 282.221399 410.627383 
L 282.328137 409.231552 
L 282.454277 407.88796 
L 282.59916 406.598116 
L 282.762094 405.363474 
L 282.942353 404.185423 
L 283.139184 403.06529 
L 283.3518 402.004339 
L 283.579391 401.003766 
L 283.821116 400.0647 
L 284.076111 399.188201 
L 284.343491 398.375258 
L 284.622345 397.626791 
L 284.911744 396.943645 
L 285.210741 396.326591 
L 285.518371 395.776329 
L 285.833654 395.29348 
L 286.155598 394.878589 
L 286.483196 394.532128 
L 286.815436 394.254487 
L 287.151293 394.045981 
L 287.489739 393.906845 
L 287.82974 393.837238 
L 288.17026 393.837238 
L 288.510261 393.906845 
L 288.848707 394.045981 
L 289.184564 394.254487 
L 289.516804 394.532128 
L 289.844402 394.878589 
L 290.166346 395.29348 
L 290.481629 395.776329 
L 290.789259 396.326591 
L 291.088256 396.943645 
L 291.377655 397.626791 
L 291.656509 398.375258 
L 291.923889 399.188201 
L 292.178884 400.0647 
L 292.420609 401.003766 
L 292.6482 402.004339 
L 292.860816 403.06529 
L 293.057647 404.185423 
L 293.237906 405.363474 
L 293.40084 406.598116 
L 293.545723 407.88796 
L 293.671863 409.231552 
L 293.778601 410.627383 
L 293.865313 412.073882 
L 293.931409 413.569426 
L 293.976338 415.112334 
L 293.999587 416.700878 
L 294.000679 418.333275 
L 293.979182 420.007699 
L 293.9347 421.722275 
L 293.866881 423.475087 
L 293.775416 425.264177 
L 293.660037 427.08755 
L 293.520523 428.943173 
L 293.356695 430.828981 
L 293.168419 432.742875 
L 292.955607 434.682732 
L 292.718217 436.646398 
L 292.456251 438.631698 
L 292.169761 440.636436 
L 291.858841 442.658397 
L 291.523634 444.695351 
L 291.164329 446.745054 
L 290.781161 448.805253 
L 290.374412 450.873685 
L 289.944409 452.948084 
L 289.491525 455.026182 
L 289.016179 457.10571 
L 288.518835 459.184403 
L 288 461.26 
z
" clip-path="url(#p3fa03ede12)" style="fill: #4682b4; opacity: 0.3"/>
   </g>
   <g id="patch_11">
    <path d="M 288 461.26 
L 289.687743 460.203965 
L 291.384404 459.166059 
L 293.088131 458.147382 
L 294.797052 457.148996 
L 296.509279 456.171923 
L 298.222912 455.217146 
L 299.936039 454.285607 
L 301.646739 453.378205 
L 303.353086 452.495795 
L 305.053147 451.639192 
L 306.744991 450.809162 
L 308.426685 450.006426 
L 310.096298 449.231661 
L 311.751908 448.485495 
L 313.391596 447.768509 
L 315.013457 447.081237 
L 316.615596 446.424163 
L 318.196133 445.797723 
L 319.753207 445.202305 
L 321.284973 444.638247 
L 322.789611 444.105837 
L 324.265322 443.605315 
L 325.710335 443.13687 
L 327.122908 442.700645 
L 328.501328 442.29673 
L 329.843916 441.925169 
L 331.149027 441.585956 
L 332.415054 441.279036 
L 333.640429 441.00431 
L 334.823624 440.761627 
L 335.963157 440.550793 
L 337.057587 440.371567 
L 338.105524 440.22366 
L 339.105623 440.106743 
L 340.056593 440.02044 
L 340.957193 439.964333 
L 341.806236 439.937963 
L 342.602591 439.940829 
L 343.345184 439.972391 
L 344.032999 440.032069 
L 344.665081 440.119247 
L 345.240535 440.233272 
L 345.758527 440.373455 
L 346.21829 440.539074 
L 346.619118 440.729376 
L 346.960374 440.943576 
L 347.241484 441.180857 
L 347.461945 441.440378 
L 347.621319 441.721268 
L 347.719238 442.022634 
L 347.755405 442.343557 
L 347.729591 442.683097 
L 347.641639 443.040294 
L 347.491461 443.41417 
L 347.27904 443.803729 
L 347.004433 444.20796 
L 346.667766 444.625839 
L 346.269237 445.056329 
L 345.809113 445.498386 
L 345.287737 445.950954 
L 344.705518 446.412974 
L 344.062938 446.883378 
L 343.360548 447.361099 
L 342.598969 447.845067 
L 341.77889 448.334213 
L 340.901071 448.827468 
L 339.966335 449.323771 
L 338.975575 449.822064 
L 337.929749 450.321296 
L 336.829878 450.820427 
L 335.677049 451.318425 
L 334.472409 451.814275 
L 333.217167 452.30697 
L 331.912593 452.795524 
L 330.560013 453.278965 
L 329.16081 453.756341 
L 327.716425 454.226719 
L 326.228351 454.68919 
L 324.698131 455.142865 
L 323.12736 455.586881 
L 321.517684 456.020403 
L 319.87079 456.442619 
L 318.188414 456.852749 
L 316.472332 457.25004 
L 314.724363 457.633771 
L 312.946361 458.003252 
L 311.14022 458.357829 
L 309.307865 458.696876 
L 307.451255 459.019809 
L 305.572377 459.326073 
L 303.673247 459.615154 
L 301.755904 459.886575 
L 299.82241 460.139894 
L 297.874848 460.374712 
L 295.915318 460.590665 
L 293.945935 460.787432 
L 291.968828 460.964731 
L 289.986134 461.12232 
L 288 461.26 
z
" clip-path="url(#p3fa03ede12)" style="fill: #4682b4; opacity: 0.3"/>
   </g>
   <g id="patch_12">
    <path d="M 288 461.26 
L 289.580067 462.58421 
L 291.145134 463.923005 
L 292.693525 465.274911 
L 294.223595 466.638425 
L 295.733734 468.012015 
L 297.222364 469.394124 
L 298.687948 470.783171 
L 300.128984 472.177551 
L 301.544013 473.575641 
L 302.931617 474.975799 
L 304.290422 476.376367 
L 305.619098 477.775673 
L 306.916363 479.172032 
L 308.180982 480.563751 
L 309.411768 481.949129 
L 310.607588 483.326457 
L 311.767357 484.694025 
L 312.890044 486.050123 
L 313.974672 487.393039 
L 315.020318 488.721067 
L 316.026115 490.032505 
L 316.991252 491.32566 
L 317.914975 492.598847 
L 318.796588 493.850395 
L 319.635451 495.078648 
L 320.430987 496.281965 
L 321.182673 497.458725 
L 321.890049 498.607329 
L 322.552712 499.726198 
L 323.170321 500.813782 
L 323.742593 501.868556 
L 324.269305 502.889027 
L 324.750295 503.873732 
L 325.185458 504.821241 
L 325.574751 505.730163 
L 325.918188 506.599142 
L 326.215842 507.426862 
L 326.467844 508.212049 
L 326.674383 508.953472 
L 326.835704 509.649945 
L 326.952108 510.30033 
L 327.023952 510.903537 
L 327.051649 511.458526 
L 327.035661 511.964307 
L 326.976508 512.419947 
L 326.874757 512.824565 
L 326.731029 513.177337 
L 326.545991 513.477495 
L 326.320361 513.724332 
L 326.054902 513.9172 
L 325.750423 514.05551 
L 325.407776 514.138737 
L 325.027855 514.166418 
L 324.611598 514.138155 
L 324.159979 514.053613 
L 323.674012 513.912522 
L 323.154745 513.714681 
L 322.603262 513.459952 
L 322.02068 513.148264 
L 321.408145 512.779617 
L 320.766834 512.354075 
L 320.09795 511.871771 
L 319.402722 511.332905 
L 318.682402 510.737748 
L 317.938264 510.086636 
L 317.171601 509.379975 
L 316.383726 508.618236 
L 315.575963 507.80196 
L 314.749655 506.931754 
L 313.906153 506.008291 
L 313.046819 505.032311 
L 312.173024 504.004619 
L 311.286142 502.926084 
L 310.387553 501.797639 
L 309.478639 500.620281 
L 308.560779 499.395068 
L 307.635352 498.123119 
L 306.703733 496.805612 
L 305.76729 495.443786 
L 304.827382 494.038934 
L 303.885362 492.592408 
L 302.942565 491.105612 
L 302.000319 489.580004 
L 301.05993 488.017094 
L 300.122692 486.418441 
L 299.189877 484.785653 
L 298.262737 483.120382 
L 297.342502 481.424327 
L 296.430376 479.699227 
L 295.52754 477.946864 
L 294.635146 476.169058 
L 293.754316 474.367664 
L 292.886145 472.544572 
L 292.031693 470.701705 
L 291.19199 468.841016 
L 290.368029 466.964484 
L 289.560768 465.074114 
L 288.771131 463.171937 
L 288 461.26 
z
" clip-path="url(#p3fa03ede12)" style="fill: #4682b4; opacity: 0.3"/>
   </g>
   <g id="patch_13">
    <path d="M 288 461.26 
L 287.193828 463.258816 
L 286.368309 465.24743 
L 285.524367 467.223698 
L 284.662965 469.185501 
L 283.785105 471.130741 
L 282.891826 473.057349 
L 281.984205 474.963283 
L 281.06335 476.846533 
L 280.130405 478.705124 
L 279.186543 480.537115 
L 278.23297 482.340604 
L 277.270919 484.113729 
L 276.301649 485.85467 
L 275.326447 487.561654 
L 274.34662 489.23295 
L 273.3635 490.866879 
L 272.378437 492.461811 
L 271.3928 494.016168 
L 270.407973 495.528425 
L 269.425356 496.997114 
L 268.44636 498.420823 
L 267.472408 499.798197 
L 266.504929 501.127945 
L 265.545361 502.408832 
L 264.595145 503.63969 
L 263.655724 504.819411 
L 262.728542 505.946956 
L 261.815041 507.021347 
L 260.916659 508.041676 
L 260.034828 509.007101 
L 259.170971 509.91685 
L 258.326504 510.770218 
L 257.502826 511.566571 
L 256.701326 512.305343 
L 255.923374 512.986042 
L 255.170323 513.608243 
L 254.443503 514.171595 
L 253.744225 514.675815 
L 253.073772 515.120694 
L 252.433403 515.506093 
L 251.824348 515.831943 
L 251.247806 516.098248 
L 250.704943 516.305079 
L 250.196893 516.452581 
L 249.724753 516.540964 
L 249.28958 516.570512 
L 248.892396 516.541573 
L 248.534179 516.454564 
L 248.215864 516.309969 
L 247.938342 516.108338 
L 247.70246 515.850284 
L 247.509014 515.536487 
L 247.358755 515.167685 
L 247.25238 514.744681 
L 247.190539 514.268336 
L 247.173825 513.739572 
L 247.20278 513.159364 
L 247.277889 512.528747 
L 247.399583 511.848808 
L 247.568234 511.120687 
L 247.784158 510.345573 
L 248.047611 509.524707 
L 248.35879 508.659375 
L 248.717833 507.75091 
L 249.124816 506.800686 
L 249.579753 505.810121 
L 250.082599 504.780671 
L 250.633246 503.713829 
L 251.231522 502.611125 
L 251.877195 501.474121 
L 252.56997 500.30441 
L 253.30949 499.103614 
L 254.095333 497.873381 
L 254.927018 496.615384 
L 255.804 495.331319 
L 256.725674 494.0229 
L 257.691371 492.691858 
L 258.700364 491.339942 
L 259.751865 489.968912 
L 260.845026 488.580538 
L 261.97894 487.176599 
L 263.152643 485.758879 
L 264.365112 484.329168 
L 265.61527 482.889253 
L 266.901984 481.440924 
L 268.224068 479.985964 
L 269.580281 478.526153 
L 270.969333 477.063262 
L 272.389882 475.599052 
L 273.84054 474.13527 
L 275.319869 472.67365 
L 276.826387 471.215908 
L 278.358567 469.763743 
L 279.914842 468.31883 
L 281.493601 466.882824 
L 283.093199 465.457351 
L 284.711949 464.044013 
L 286.348134 462.644383 
L 288 461.26 
z
" clip-path="url(#p3fa03ede12)" style="fill: #4682b4; opacity: 0.3"/>
   </g>
   <g id="patch_14">
    <path d="M 288 461.26 
L 286.220882 461.136671 
L 284.444846 460.995507 
L 282.673814 460.836688 
L 280.909702 460.66043 
L 279.154415 460.466986 
L 277.409849 460.256644 
L 275.677885 460.029728 
L 273.960388 459.786598 
L 272.259206 459.527648 
L 270.576165 459.253306 
L 268.913071 458.964033 
L 267.271704 458.660324 
L 265.653818 458.342706 
L 264.061139 458.011735 
L 262.495362 457.668001 
L 260.958149 457.31212 
L 259.451128 456.944739 
L 257.975891 456.56653 
L 256.533993 456.178195 
L 255.126945 455.780459 
L 253.756221 455.37407 
L 252.423249 454.959804 
L 251.129414 454.538453 
L 249.876052 454.110835 
L 248.664452 453.677783 
L 247.495854 453.240152 
L 246.371447 452.79881 
L 245.292368 452.354644 
L 244.259699 451.908552 
L 243.274469 451.461446 
L 242.33765 451.014249 
L 241.450158 450.567894 
L 240.61285 450.123321 
L 239.826527 449.681478 
L 239.091926 449.243316 
L 238.409727 448.809793 
L 237.780547 448.381865 
L 237.204944 447.960491 
L 236.68341 447.546629 
L 236.216377 447.141232 
L 235.804213 446.745251 
L 235.447222 446.359631 
L 235.145646 445.985308 
L 234.899662 445.62321 
L 234.709382 445.274255 
L 234.574857 444.939349 
L 234.496072 444.619383 
L 234.472949 444.315233 
L 234.505346 444.02776 
L 234.593059 443.757806 
L 234.735822 443.506193 
L 234.933303 443.273722 
L 235.185113 443.061173 
L 235.490799 442.8693 
L 235.849849 442.698833 
L 236.26169 442.550476 
L 236.725692 442.424904 
L 237.241166 442.322765 
L 237.807365 442.244673 
L 238.423489 442.191216 
L 239.088681 442.162944 
L 239.802031 442.160376 
L 240.562578 442.183998 
L 241.369307 442.234256 
L 242.221157 442.311564 
L 243.117015 442.416295 
L 244.055724 442.548785 
L 245.036081 442.709331 
L 246.05684 442.898189 
L 247.11671 443.115577 
L 248.214363 443.361668 
L 249.348431 443.636597 
L 250.517509 443.940454 
L 251.720158 444.273287 
L 252.954904 444.635102 
L 254.220243 445.025859 
L 255.514642 445.445477 
L 256.836538 445.893829 
L 258.184346 446.370745 
L 259.556455 446.876011 
L 260.951234 447.409368 
L 262.367031 447.970514 
L 263.802177 448.559101 
L 265.25499 449.174738 
L 266.723773 449.816992 
L 268.206817 450.485384 
L 269.702405 451.179395 
L 271.208814 451.898461 
L 272.724316 452.641977 
L 274.247179 453.409296 
L 275.775671 454.19973 
L 277.308064 455.012553 
L 278.84263 455.846998 
L 280.37765 456.702258 
L 281.91141 457.577489 
L 283.442209 458.471813 
L 284.968355 459.384312 
L 286.488172 460.314036 
L 288 461.26 
z
" clip-path="url(#p3fa03ede12)" style="fill: #4682b4; opacity: 0.3"/>
   </g>
   <g id="matplotlib.axis_3">
    <g id="xtick_6">
     <g id="line2d_16">
      <path d="M 288 461.26 
L 288 357.32 
" clip-path="url(#p3fa03ede12)" style="fill: none; stroke: #b0b0b0; stroke-width: 0.8; stroke-linecap: square"/>
     </g>
     <g id="text_7">
      <text style="font-size: 10px; font-family: 'DejaVu Sans', 'Bitstream Vera Sans', 'Computer Modern Sans Serif', 'Lucida Grande', 'Verdana', 'Geneva', 'Lucid', 'Arial', 'Helvetica', 'Avant Garde', sans-serif; text-anchor: middle" x="288" y="346.079375" transform="rotate(-0 288 346.079375)">OFC</text>
     </g>
    </g>
    <g id="xtick_7">
     <g id="line2d_17">
      <path d="M 288 461.26 
L 386.852814 429.140774 
" clip-path="url(#p3fa03ede12)" style="fill: none; stroke: #b0b0b0; stroke-width: 0.8; stroke-linecap: square"/>
     </g>
     <g id="text_8">
      <text style="font-size: 10px; font-family: 'DejaVu Sans', 'Bitstream Vera Sans', 'Computer Modern Sans Serif', 'Lucida Grande', 'Verdana', 'Geneva', 'Lucid', 'Arial', 'Helvetica', 'Avant Garde', sans-serif; text-anchor: middle" x="400.167606" y="427.573911" transform="rotate(-0 400.167606 427.573911)">mPFC</text>
     </g>
    </g>
    <g id="xtick_8">
     <g id="line2d_18">
      <path d="M 288 461.26 
L 349.094399 545.349226 
" clip-path="url(#p3fa03ede12)" style="fill: none; stroke: #b0b0b0; stroke-width: 0.8; stroke-linecap: square"/>
     </g>
     <g id="text_9">
      <text style="font-size: 10px; font-family: 'DejaVu Sans', 'Bitstream Vera Sans', 'Computer Modern Sans Serif', 'Lucida Grande', 'Verdana', 'Geneva', 'Lucid', 'Arial', 'Helvetica', 'Avant Garde', sans-serif; text-anchor: middle" x="357.323393" y="559.434839" transform="rotate(-0 357.323393 559.434839)">ACC</text>
     </g>
    </g>
    <g id="xtick_9">
     <g id="line2d_19">
      <path d="M 288 461.26 
L 226.905601 545.349226 
" clip-path="url(#p3fa03ede12)" style="fill: none; stroke: #b0b0b0; stroke-width: 0.8; stroke-linecap: square"/>
     </g>
     <g id="text_10">
      <text style="font-size: 10px; font-family: 'DejaVu Sans', 'Bitstream Vera Sans', 'Computer Modern Sans Serif', 'Lucida Grande', 'Verdana', 'Geneva', 'Lucid', 'Arial', 'Helvetica', 'Avant Garde', sans-serif; text-anchor: middle" x="218.676607" y="559.434839" transform="rotate(-0 218.676607 559.434839)">dlPFC</text>
     </g>
    </g>
    <g id="xtick_10">
     <g id="line2d_20">
      <path d="M 288 461.26 
L 189.147186 429.140774 
" clip-path="url(#p3fa03ede12)" style="fill: none; stroke: #b0b0b0; stroke-width: 0.8; stroke-linecap: square"/>
     </g>
     <g id="text_11">
      <text style="font-size: 10px; font-family: 'DejaVu Sans', 'Bitstream Vera Sans', 'Computer Modern Sans Serif', 'Lucida Grande', 'Verdana', 'Geneva', 'Lucid', 'Arial', 'Helvetica', 'Avant Garde', sans-serif; text-anchor: middle" x="175.832394" y="427.573911" transform="rotate(-0 175.832394 427.573911)">Thalamus</text>
     </g>
    </g>
   </g>
   <g id="matplotlib.axis_4">
    <g id="ytick_6">
     <g id="line2d_21">
      <path d="M 288 461.26 
C 288 461.26 288 461.26 288 461.26 
C 288 461.26 288 461.26 288 461.26 
C 288 461.26 288 461.26 288 461.26 
C 288 461.26 288 461.26 288 461.26 
C 288 461.26 288 461.26 288 461.26 
C 288 461.26 288 461.26 288 461.26 
C 288 461.26 288 461.26 288 461.26 
C 288 461.26 288 461.26 288 461.26 
C 288 461.26 288 461.26 288 461.26 
C 288 461.26 288 461.26 288 461.26 
C 288 461.26 288 461.26 288 461.26 
C 288 461.26 288 461.26 288 461.26 
C 288 461.26 288 461.26 288 461.26 
C 288 461.26 288 461.26 288 461.26 
C 288 461.26 288 461.26 288 461.26 
C 288 461.26 288 461.26 288 461.26 
" clip-path="url(#p3fa03ede12)" style="fill: none; stroke: #808080; stroke-width: 0.5; stroke-linecap: square"/>
     </g>
    </g>
    <g id="ytick_7">
     <g id="line2d_22">
      <path d="M 288 435.275 
C 291.412319 435.275 294.791457 435.947152 297.944029 437.25299 
C 301.096601 438.558828 303.961296 440.472956 306.37417 442.88583 
C 308.787044 445.298704 310.701172 448.163399 312.00701 451.315971 
C 313.312848 454.468543 313.985 457.847681 313.985 461.26 
C 313.985 464.672319 313.312848 468.051457 312.00701 471.204029 
C 310.701172 474.356601 308.787044 477.221296 306.37417 479.63417 
C 303.961296 482.047044 301.096601 483.961172 297.944029 485.26701 
C 294.791457 486.572848 291.412319 487.245 288 487.245 
C 284.587681 487.245 281.208543 486.572848 278.055971 485.26701 
C 274.903399 483.961172 272.038704 482.047044 269.62583 479.63417 
C 267.212956 477.221296 265.298828 474.356601 263.99299 471.204029 
C 262.687152 468.051457 262.015 464.672319 262.015 461.26 
C 262.015 457.847681 262.687152 454.468543 263.99299 451.315971 
C 265.298828 448.163399 267.212956 445.298704 269.62583 442.88583 
C 272.038704 440.472956 274.903399 438.558828 278.055971 437.25299 
C 281.208543 435.947152 284.587681 435.275 288 435.275 
" clip-path="url(#p3fa03ede12)" style="fill: none; stroke: #808080; stroke-width: 0.5; stroke-linecap: square"/>
     </g>
    </g>
    <g id="ytick_8">
     <g id="line2d_23">
      <path d="M 288 409.29 
C 294.824638 409.29 301.582915 410.634305 307.888058 413.245981 
C 314.193201 415.857657 319.922592 419.685913 324.748339 424.511661 
C 329.574087 429.337408 333.402343 435.066799 336.014019 441.371942 
C 338.625695 447.677085 339.97 454.435362 339.97 461.26 
C 339.97 468.084638 338.625695 474.842915 336.014019 481.148058 
C 333.402343 487.453201 329.574087 493.182592 324.748339 498.008339 
C 319.922592 502.834087 314.193201 506.662343 307.888058 509.274019 
C 301.582915 511.885695 294.824638 513.23 288 513.23 
C 281.175362 513.23 274.417085 511.885695 268.111942 509.274019 
C 261.806799 506.662343 256.077408 502.834087 251.251661 498.008339 
C 246.425913 493.182592 242.597657 487.453201 239.985981 481.148058 
C 237.374305 474.842915 236.03 468.084638 236.03 461.26 
C 236.03 454.435362 237.374305 447.677085 239.985981 441.371942 
C 242.597657 435.066799 246.425913 429.337408 251.251661 424.511661 
C 256.077408 419.685913 261.806799 415.857657 268.111942 413.245981 
C 274.417085 410.634305 281.175362 409.29 288 409.29 
" clip-path="url(#p3fa03ede12)" style="fill: none; stroke: #000000; stroke-width: 0.5; stroke-linecap: square"/>
     </g>
    </g>
    <g id="ytick_9">
     <g id="line2d_24">
      <path d="M 288 383.305 
C 298.236957 383.305 308.374372 385.321457 317.832087 389.238971 
C 327.289802 393.156485 335.883888 398.898869 343.122509 406.137491 
C 350.361131 413.376112 356.103515 421.970198 360.021029 431.427913 
C 363.938543 440.885628 365.955 451.023043 365.955 461.26 
C 365.955 471.496957 363.938543 481.634372 360.021029 491.092087 
C 356.103515 500.549802 350.361131 509.143888 343.122509 516.382509 
C 335.883888 523.621131 327.289802 529.363515 317.832087 533.281029 
C 308.374372 537.198543 298.236957 539.215 288 539.215 
C 277.763043 539.215 267.625628 537.198543 258.167913 533.281029 
C 248.710198 529.363515 240.116112 523.621131 232.877491 516.382509 
C 225.638869 509.143888 219.896485 500.549802 215.978971 491.092087 
C 212.061457 481.634372 210.045 471.496957 210.045 461.26 
C 210.045 451.023043 212.061457 440.885628 215.978971 431.427913 
C 219.896485 421.970198 225.638869 413.376112 232.877491 406.137491 
C 240.116112 398.898869 248.710198 393.156485 258.167913 389.238971 
C 267.625628 385.321457 277.763043 383.305 288 383.305 
" clip-path="url(#p3fa03ede12)" style="fill: none; stroke: #808080; stroke-width: 0.5; stroke-linecap: square"/>
     </g>
    </g>
    <g id="ytick_10">
     <g id="line2d_25">
      <path d="M 288 357.32 
C 301.649276 357.32 315.165829 360.00861 327.776116 365.231961 
C 340.386402 370.455313 351.845183 378.111826 361.496679 387.763321 
C 371.148174 397.414817 378.804687 408.873598 384.028039 421.483884 
C 389.25139 434.094171 391.94 447.610724 391.94 461.26 
C 391.94 474.909276 389.25139 488.425829 384.028039 501.036116 
C 378.804687 513.646402 371.148174 525.105183 361.496679 534.756679 
C 351.845183 544.408174 340.386402 552.064687 327.776116 557.288039 
C 315.165829 562.51139 301.649276 565.2 288 565.2 
C 274.350724 565.2 260.834171 562.51139 248.223884 557.288039 
C 235.613598 552.064687 224.154817 544.408174 214.503321 534.756679 
C 204.851826 525.105183 197.195313 513.646402 191.971961 501.036116 
C 186.74861 488.425829 184.06 474.909276 184.06 461.26 
C 184.06 447.610724 186.74861 434.094171 191.971961 421.483884 
C 197.195313 408.873598 204.851826 397.414817 214.503321 387.763321 
C 224.154817 378.111826 235.613598 370.455313 248.223884 365.231961 
C 260.834171 360.00861 274.350724 357.32 288 357.32 
" clip-path="url(#p3fa03ede12)" style="fill: none; stroke: #808080; stroke-width: 0.5; stroke-linecap: square"/>
     </g>
    </g>
   </g>
   <g id="line2d_26">
    <path d="M 288 461.26 
L 287.481165 459.184403 
L 286.983821 457.10571 
L 286.508475 455.026182 
L 286.055591 452.948084 
L 285.625588 450.873685 
L 285.218839 448.805253 
L 284.835671 446.745054 
L 284.476366 444.695351 
L 284.141159 442.658397 
L 283.830239 440.636436 
L 283.543749 438.631698 
L 283.281783 436.646398 
L 283.044393 434.682732 
L 282.831581 432.742875 
L 282.643305 430.828981 
L 282.479477 428.943173 
L 282.339963 427.08755 
L 282.224584 425.264177 
L 282.133119 423.475087 
L 282.0653 421.722275 
L 282.020818 420.007699 
L 281.999321 418.333275 
L 282.000413 416.700878 
L 282.023662 415.112334 
L 282.068591 413.569426 
L 282.134687 412.073882 
L 282.221399 410.627383 
L 282.328137 409.231552 
L 282.454277 407.88796 
L 282.59916 406.598116 
L 282.762094 405.363474 
L 282.942353 404.185423 
L 283.139184 403.06529 
L 283.3518 402.004339 
L 283.579391 401.003766 
L 283.821116 400.0647 
L 284.076111 399.188201 
L 284.343491 398.375258 
L 284.622345 397.626791 
L 284.911744 396.943645 
L 285.210741 396.326591 
L 285.518371 395.776329 
L 285.833654 395.29348 
L 286.155598 394.878589 
L 286.483196 394.532128 
L 286.815436 394.254487 
L 287.151293 394.045981 
L 287.489739 393.906845 
L 287.82974 393.837238 
L 288.17026 393.837238 
L 288.510261 393.906845 
L 288.848707 394.045981 
L 289.184564 394.254487 
L 289.516804 394.532128 
L 289.844402 394.878589 
L 290.166346 395.29348 
L 290.481629 395.776329 
L 290.789259 396.326591 
L 291.088256 396.943645 
L 291.377655 397.626791 
L 291.656509 398.375258 
L 291.923889 399.188201 
L 292.178884 400.0647 
L 292.420609 401.003766 
L 292.6482 402.004339 
L 292.860816 403.06529 
L 293.057647 404.185423 
L 293.237906 405.363474 
L 293.40084 406.598116 
L 293.545723 407.88796 
L 293.671863 409.231552 
L 293.778601 410.627383 
L 293.865313 412.073882 
L 293.931409 413.569426 
L 293.976338 415.112334 
L 293.999587 416.700878 
L 294.000679 418.333275 
L 293.979182 420.007699 
L 293.9347 421.722275 
L 293.866881 423.475087 
L 293.775416 425.264177 
L 293.660037 427.08755 
L 293.520523 428.943173 
L 293.356695 430.828981 
L 293.168419 432.742875 
L 292.955607 434.682732 
L 292.718217 436.646398 
L 292.456251 438.631698 
L 292.169761 440.636436 
L 291.858841 442.658397 
L 291.523634 444.695351 
L 291.164329 446.745054 
L 290.781161 448.805253 
L 290.374412 450.873685 
L 289.944409 452.948084 
L 289.491525 455.026182 
L 289.016179 457.10571 
L 288.518835 459.184403 
L 288 461.26 
" clip-path="url(#p3fa03ede12)" style="fill: none; stroke: #4682b4; stroke-width: 1.5; stroke-linecap: square"/>
   </g>
   <g id="line2d_27">
    <path d="M 288 461.26 
L 289.687743 460.203965 
L 291.384404 459.166059 
L 293.088131 458.147382 
L 294.797052 457.148996 
L 296.509279 456.171923 
L 298.222912 455.217146 
L 299.936039 454.285607 
L 301.646739 453.378205 
L 303.353086 452.495795 
L 305.053147 451.639192 
L 306.744991 450.809162 
L 308.426685 450.006426 
L 310.096298 449.231661 
L 311.751908 448.485495 
L 313.391596 447.768509 
L 315.013457 447.081237 
L 316.615596 446.424163 
L 318.196133 445.797723 
L 319.753207 445.202305 
L 321.284973 444.638247 
L 322.789611 444.105837 
L 324.265322 443.605315 
L 325.710335 443.13687 
L 327.122908 442.700645 
L 328.501328 442.29673 
L 329.843916 441.925169 
L 331.149027 441.585956 
L 332.415054 441.279036 
L 333.640429 441.00431 
L 334.823624 440.761627 
L 335.963157 440.550793 
L 337.057587 440.371567 
L 338.105524 440.22366 
L 339.105623 440.106743 
L 340.056593 440.02044 
L 340.957193 439.964333 
L 341.806236 439.937963 
L 342.602591 439.940829 
L 343.345184 439.972391 
L 344.032999 440.032069 
L 344.665081 440.119247 
L 345.240535 440.233272 
L 345.758527 440.373455 
L 346.21829 440.539074 
L 346.619118 440.729376 
L 346.960374 440.943576 
L 347.241484 441.180857 
L 347.461945 441.440378 
L 347.621319 441.721268 
L 347.719238 442.022634 
L 347.755405 442.343557 
L 347.729591 442.683097 
L 347.641639 443.040294 
L 347.491461 443.41417 
L 347.27904 443.803729 
L 347.004433 444.20796 
L 346.667766 444.625839 
L 346.269237 445.056329 
L 345.809113 445.498386 
L 345.287737 445.950954 
L 344.705518 446.412974 
L 344.062938 446.883378 
L 343.360548 447.361099 
L 342.598969 447.845067 
L 341.77889 448.334213 
L 340.901071 448.827468 
L 339.966335 449.323771 
L 338.975575 449.822064 
L 337.929749 450.321296 
L 336.829878 450.820427 
L 335.677049 451.318425 
L 334.472409 451.814275 
L 333.217167 452.30697 
L 331.912593 452.795524 
L 330.560013 453.278965 
L 329.16081 453.756341 
L 327.716425 454.226719 
L 326.228351 454.68919 
L 324.698131 455.142865 
L 323.12736 455.586881 
L 321.517684 456.020403 
L 319.87079 456.442619 
L 318.188414 456.852749 
L 316.472332 457.25004 
L 314.724363 457.633771 
L 312.946361 458.003252 
L 311.14022 458.357829 
L 309.307865 458.696876 
L 307.451255 459.019809 
L 305.572377 459.326073 
L 303.673247 459.615154 
L 301.755904 459.886575 
L 299.82241 460.139894 
L 297.874848 460.374712 
L 295.915318 460.590665 
L 293.945935 460.787432 
L 291.968828 460.964731 
L 289.986134 461.12232 
L 288 461.26 
" clip-path="url(#p3fa03ede12)" style="fill: none; stroke: #4682b4; stroke-width: 1.5; stroke-linecap: square"/>
   </g>
   <g id="line2d_28">
    <path d="M 288 461.26 
L 289.580067 462.58421 
L 291.145134 463.923005 
L 292.693525 465.274911 
L 294.223595 466.638425 
L 295.733734 468.012015 
L 297.222364 469.394124 
L 298.687948 470.783171 
L 300.128984 472.177551 
L 301.544013 473.575641 
L 302.931617 474.975799 
L 304.290422 476.376367 
L 305.619098 477.775673 
L 306.916363 479.172032 
L 308.180982 480.563751 
L 309.411768 481.949129 
L 310.607588 483.326457 
L 311.767357 484.694025 
L 312.890044 486.050123 
L 313.974672 487.393039 
L 315.020318 488.721067 
L 316.026115 490.032505 
L 316.991252 491.32566 
L 317.914975 492.598847 
L 318.796588 493.850395 
L 319.635451 495.078648 
L 320.430987 496.281965 
L 321.182673 497.458725 
L 321.890049 498.607329 
L 322.552712 499.726198 
L 323.170321 500.813782 
L 323.742593 501.868556 
L 324.269305 502.889027 
L 324.750295 503.873732 
L 325.185458 504.821241 
L 325.574751 505.730163 
L 325.918188 506.599142 
L 326.215842 507.426862 
L 326.467844 508.212049 
L 326.674383 508.953472 
L 326.835704 509.649945 
L 326.952108 510.30033 
L 327.023952 510.903537 
L 327.051649 511.458526 
L 327.035661 511.964307 
L 326.976508 512.419947 
L 326.874757 512.824565 
L 326.731029 513.177337 
L 326.545991 513.477495 
L 326.320361 513.724332 
L 326.054902 513.9172 
L 325.750423 514.05551 
L 325.407776 514.138737 
L 325.027855 514.166418 
L 324.611598 514.138155 
L 324.159979 514.053613 
L 323.674012 513.912522 
L 323.154745 513.714681 
L 322.603262 513.459952 
L 322.02068 513.148264 
L 321.408145 512.779617 
L 320.766834 512.354075 
L 320.09795 511.871771 
L 319.402722 511.332905 
L 318.682402 510.737748 
L 317.938264 510.086636 
L 317.171601 509.379975 
L 316.383726 508.618236 
L 315.575963 507.80196 
L 314.749655 506.931754 
L 313.906153 506.008291 
L 313.046819 505.032311 
L 312.173024 504.004619 
L 311.286142 502.926084 
L 310.387553 501.797639 
L 309.478639 500.620281 
L 308.560779 499.395068 
L 307.635352 498.123119 
L 306.703733 496.805612 
L 305.76729 495.443786 
L 304.827382 494.038934 
L 303.885362 492.592408 
L 302.942565 491.105612 
L 302.000319 489.580004 
L 301.05993 488.017094 
L 300.122692 486.418441 
L 299.189877 484.785653 
L 298.262737 483.120382 
L 297.342502 481.424327 
L 296.430376 479.699227 
L 295.52754 477.946864 
L 294.635146 476.169058 
L 293.754316 474.367664 
L 292.886145 472.544572 
L 292.031693 470.701705 
L 291.19199 468.841016 
L 290.368029 466.964484 
L 289.560768 465.074114 
L 288.771131 463.171937 
L 288 461.26 
" clip-path="url(#p3fa03ede12)" style="fill: none; stroke: #4682b4; stroke-width: 1.5; stroke-linecap: square"/>
   </g>
   <g id="line2d_29">
    <path d="M 288 461.26 
L 287.193828 463.258816 
L 286.368309 465.24743 
L 285.524367 467.223698 
L 284.662965 469.185501 
L 283.785105 471.130741 
L 282.891826 473.057349 
L 281.984205 474.963283 
L 281.06335 476.846533 
L 280.130405 478.705124 
L 279.186543 480.537115 
L 278.23297 482.340604 
L 277.270919 484.113729 
L 276.301649 485.85467 
L 275.326447 487.561654 
L 274.34662 489.23295 
L 273.3635 490.866879 
L 272.378437 492.461811 
L 271.3928 494.016168 
L 270.407973 495.528425 
L 269.425356 496.997114 
L 268.44636 498.420823 
L 267.472408 499.798197 
L 266.504929 501.127945 
L 265.545361 502.408832 
L 264.595145 503.63969 
L 263.655724 504.819411 
L 262.728542 505.946956 
L 261.815041 507.021347 
L 260.916659 508.041676 
L 260.034828 509.007101 
L 259.170971 509.91685 
L 258.326504 510.770218 
L 257.502826 511.566571 
L 256.701326 512.305343 
L 255.923374 512.986042 
L 255.170323 513.608243 
L 254.443503 514.171595 
L 253.744225 514.675815 
L 253.073772 515.120694 
L 252.433403 515.506093 
L 251.824348 515.831943 
L 251.247806 516.098248 
L 250.704943 516.305079 
L 250.196893 516.452581 
L 249.724753 516.540964 
L 249.28958 516.570512 
L 248.892396 516.541573 
L 248.534179 516.454564 
L 248.215864 516.309969 
L 247.938342 516.108338 
L 247.70246 515.850284 
L 247.509014 515.536487 
L 247.358755 515.167685 
L 247.25238 514.744681 
L 247.190539 514.268336 
L 247.173825 513.739572 
L 247.20278 513.159364 
L 247.277889 512.528747 
L 247.399583 511.848808 
L 247.568234 511.120687 
L 247.784158 510.345573 
L 248.047611 509.524707 
L 248.35879 508.659375 
L 248.717833 507.75091 
L 249.124816 506.800686 
L 249.579753 505.810121 
L 250.082599 504.780671 
L 250.633246 503.713829 
L 251.231522 502.611125 
L 251.877195 501.474121 
L 252.56997 500.30441 
L 253.30949 499.103614 
L 254.095333 497.873381 
L 254.927018 496.615384 
L 255.804 495.331319 
L 256.725674 494.0229 
L 257.691371 492.691858 
L 258.700364 491.339942 
L 259.751865 489.968912 
L 260.845026 488.580538 
L 261.97894 487.176599 
L 263.152643 485.758879 
L 264.365112 484.329168 
L 265.61527 482.889253 
L 266.901984 481.440924 
L 268.224068 479.985964 
L 269.580281 478.526153 
L 270.969333 477.063262 
L 272.389882 475.599052 
L 273.84054 474.13527 
L 275.319869 472.67365 
L 276.826387 471.215908 
L 278.358567 469.763743 
L 279.914842 468.31883 
L 281.493601 466.882824 
L 283.093199 465.457351 
L 284.711949 464.044013 
L 286.348134 462.644383 
L 288 461.26 
" clip-path="url(#p3fa03ede12)" style="fill: none; stroke: #4682b4; stroke-width: 1.5; stroke-linecap: square"/>
   </g>
   <g id="line2d_30">
    <path d="M 288 461.26 
L 286.220882 461.136671 
L 284.444846 460.995507 
L 282.673814 460.836688 
L 280.909702 460.66043 
L 279.154415 460.466986 
L 277.409849 460.256644 
L 275.677885 460.029728 
L 273.960388 459.786598 
L 272.259206 459.527648 
L 270.576165 459.253306 
L 268.913071 458.964033 
L 267.271704 458.660324 
L 265.653818 458.342706 
L 264.061139 458.011735 
L 262.495362 457.668001 
L 260.958149 457.31212 
L 259.451128 456.944739 
L 257.975891 456.56653 
L 256.533993 456.178195 
L 255.126945 455.780459 
L 253.756221 455.37407 
L 252.423249 454.959804 
L 251.129414 454.538453 
L 249.876052 454.110835 
L 248.664452 453.677783 
L 247.495854 453.240152 
L 246.371447 452.79881 
L 245.292368 452.354644 
L 244.259699 451.908552 
L 243.274469 451.461446 
L 242.33765 451.014249 
L 241.450158 450.567894 
L 240.61285 450.123321 
L 239.826527 449.681478 
L 239.091926 449.243316 
L 238.409727 448.809793 
L 237.780547 448.381865 
L 237.204944 447.960491 
L 236.68341 447.546629 
L 236.216377 447.141232 
L 235.804213 446.745251 
L 235.447222 446.359631 
L 235.145646 445.985308 
L 234.899662 445.62321 
L 234.709382 445.274255 
L 234.574857 444.939349 
L 234.496072 444.619383 
L 234.472949 444.315233 
L 234.505346 444.02776 
L 234.593059 443.757806 
L 234.735822 443.506193 
L 234.933303 443.273722 
L 235.185113 443.061173 
L 235.490799 442.8693 
L 235.849849 442.698833 
L 236.26169 442.550476 
L 236.725692 442.424904 
L 237.241166 442.322765 
L 237.807365 442.244673 
L 238.423489 442.191216 
L 239.088681 442.162944 
L 239.802031 442.160376 
L 240.562578 442.183998 
L 241.369307 442.234256 
L 242.221157 442.311564 
L 243.117015 442.416295 
L 244.055724 442.548785 
L 245.036081 442.709331 
L 246.05684 442.898189 
L 247.11671 443.115577 
L 248.214363 443.361668 
L 249.348431 443.636597 
L 250.517509 443.940454 
L 251.720158 444.273287 
L 252.954904 444.635102 
L 254.220243 445.025859 
L 255.514642 445.445477 
L 256.836538 445.893829 
L 258.184346 446.370745 
L 259.556455 446.876011 
L 260.951234 447.409368 
L 262.367031 447.970514 
L 263.802177 448.559101 
L 265.25499 449.174738 
L 266.723773 449.816992 
L 268.206817 450.485384 
L 269.702405 451.179395 
L 271.208814 451.898461 
L 272.724316 452.641977 
L 274.247179 453.409296 
L 275.775671 454.19973 
L 277.308064 455.012553 
L 278.84263 455.846998 
L 280.37765 456.702258 
L 281.91141 457.577489 
L 283.442209 458.471813 
L 284.968355 459.384312 
L 286.488172 460.314036 
L 288 461.26 
" clip-path="url(#p3fa03ede12)" style="fill: none; stroke: #4682b4; stroke-width: 1.5; stroke-linecap: square"/>
   </g>
   <g id="patch_15">
    <path d="M 288 357.32 
C 274.350724 357.32 260.834171 360.00861 248.223884 365.231961 
C 235.613598 370.455313 224.154817 378.111826 214.503321 387.763321 
C 204.851826 397.414817 197.195313 408.873598 191.971961 421.483884 
C 186.74861 434.094171 184.06 447.610724 184.06 461.26 
C 184.06 474.909276 186.74861 488.425829 191.971961 501.036116 
C 197.195313 513.646402 204.851826 525.105183 214.503321 534.756679 
C 224.154817 544.408174 235.613598 552.064687 248.223884 557.288039 
C 260.834171 562.51139 274.350724 565.2 288 565.2 
C 301.649276 565.2 315.165829 562.51139 327.776116 557.288039 
C 340.386402 552.064687 351.845183 544.408174 361.496679 534.756679 
C 371.148174 525.105183 378.804687 513.646402 384.028039 501.036116 
C 389.25139 488.425829 391.94 474.909276 391.94 461.26 
C 391.94 447.610724 389.25139 434.094171 384.028039 421.483884 
C 378.804687 408.873598 371.148174 397.414817 361.496679 387.763321 
C 351.845183 378.111826 340.386402 370.455313 327.776116 365.231961 
C 315.165829 360.00861 301.649276 357.32 288 357.32 
" style="fill: none; stroke: #000000; stroke-width: 0.5; stroke-linejoin: miter; stroke-linecap: square"/>
   </g>
   <g id="text_12">
    <text style="font-weight: 700; font-size: 12px; font-family: 'DejaVu Sans', 'Bitstream Vera Sans', 'Computer Modern Sans Serif', 'Lucida Grande', 'Verdana', 'Geneva', 'Lucid', 'Arial', 'Helvetica', 'Avant Garde', sans-serif; text-anchor: middle" x="288" y="326.480937" transform="rotate(-0 288 326.480937)">Striatum</text>
   </g>
  </g>
  <g id="text_13">
   <text style="font-weight: 700; font-size: 14px; font-family: 'DejaVu Sans', 'Bitstream Vera Sans', 'Computer Modern Sans Serif', 'Lucida Grande', 'Verdana', 'Geneva', 'Lucid', 'Arial', 'Helvetica', 'Avant Garde', sans-serif; text-anchor: middle" x="288" y="22.157812" transform="rotate(-0 288 22.157812)">Radial Functional Connectivity Profile of Cortical Targets</text>
  </g>
 </g>
 <defs>
  <clipPath id="p226133357e">
   <path d="M 391.94 202.42 
C 391.94 188.770724 389.25139 175.254171 384.028039 162.643884 
C 378.804687 150.033598 371.148174 138.574817 361.496679 128.923321 
C 351.845183 119.271826 340.386402 111.615313 327.776116 106.391961 
C 315.165829 101.16861 301.649276 98.48 288 98.48 
C 274.350724 98.48 260.834171 101.16861 248.223884 106.391961 
C 235.613598 111.615313 224.154817 119.271826 214.503321 128.923321 
C 204.851826 138.574817 197.195313 150.033598 191.971961 162.643884 
C 186.74861 175.254171 184.06 188.770724 184.06 202.42 
C 184.06 216.069276 186.74861 229.585829 191.971961 242.196116 
C 197.195313 254.806402 204.851826 266.265183 214.503321 275.916679 
C 224.154817 285.568174 235.613598 293.224687 248.223884 298.448039 
C 260.834171 303.67139 274.350724 306.36 288 306.36 
C 301.649276 306.36 315.165829 303.67139 327.776116 298.448039 
C 340.386402 293.224687 351.845183 285.568174 361.496679 275.916679 
C 371.148174 266.265183 378.804687 254.806402 384.028039 242.196116 
C 389.25139 229.585829 391.94 216.069276 391.94 202.42 
M 288 202.42 
C 288 202.42 288 202.42 288 202.42 
C 288 202.42 288 202.42 288 202.42 
C 288 202.42 288 202.42 288 202.42 
C 288 202.42 288 202.42 288 202.42 
C 288 202.42 288 202.42 288 202.42 
C 288 202.42 288 202.42 288 202.42 
C 288 202.42 288 202.42 288 202.42 
C 288 202.42 288 202.42 288 202.42 
C 288 202.42 288 202.42 288 202.42 
C 288 202.42 288 202.42 288 202.42 
C 288 202.42 288 202.42 288 202.42 
C 288 202.42 288 202.42 288 202.42 
C 288 202.42 288 202.42 288 202.42 
C 288 202.42 288 202.42 288 202.42 
C 288 202.42 288 202.42 288 202.42 
C 288 202.42 288 202.42 288 202.42 
z
"/>
  </clipPath>
  <clipPath id="p3fa03ede12">
   <path d="M 391.94 461.26 
C 391.94 447.610724 389.25139 434.094171 384.028039 421.483884 
C 378.804687 408.873598 371.148174 397.414817 361.496679 387.763321 
C 351.845183 378.111826 340.386402 370.455313 327.776116 365.231961 
C 315.165829 360.00861 301.649276 357.32 288 357.32 
C 274.350724 357.32 260.834171 360.00861 248.223884 365.231961 
C 235.613598 370.455313 224.154817 378.111826 214.503321 387.763321 
C 204.851826 397.414817 197.195313 408.873598 191.971961 421.483884 
C 186.74861 434.094171 184.06 447.610724 184.06 461.26 
C 184.06 474.909276 186.74861 488.425829 191.971961 501.036116 
C 197.195313 513.646402 204.851826 525.105183 214.503321 534.756679 
C 224.154817 544.408174 235.613598 552.064687 248.223884 557.288039 
C 260.834171 562.51139 274.350724 565.2 288 565.2 
C 301.649276 565.2 315.165829 562.51139 327.776116 557.288039 
C 340.386402 552.064687 351.845183 544.408174 361.496679 534.756679 
C 371.148174 525.105183 378.804687 513.646402 384.028039 501.036116 
C 389.25139 488.425829 391.94 474.909276 391.94 461.26 
M 288 461.26 
C 288 461.26 288 461.26 288 461.26 
C 288 461.26 288 461.26 288 461.26 
C 288 461.26 288 461.26 288 461.26 
C 288 461.26 288 461.26 288 461.26 
C 288 461.26 288 461.26 288 461.26 
C 288 461.26 288 461.26 288 461.26 
C 288 461.26 288 461.26 288 461.26 
C 288 461.26 288 461.26 288 461.26 
C 288 461.26 288 461.26 288 461.26 
C 288 461.26 288 461.26 288 461.26 
C 288 461.26 288 461.26 288 461.26 
C 288 461.26 288 461.26 288 461.26 
C 288 461.26 288 461.26 288 461.26 
C 288 461.26 288 461.26 288 461.26 
C 288 461.26 288 461.26 288 461.26 
C 288 461.26 288 461.26 288 461.26 
z
"/>
  </clipPath>
 </defs>
</svg>
